# xmcd CD database file
#
# Track frame offsets:
#	150
#	25012
#	50460
#
# Disc length: 1002 seconds
#
# Revision: 1
# Processed by: cddbd v1.5.2PL0 Copyright (c) Steve Scherf et al.
# Submitted via: CDex 1.70beta2
#
DISCID=1a03e803
DTITLE=観月ありさ - あなたの世代へくちづけを
DYEAR=1995
DGENRE=JPop
TTITLE0=あなたの世代へくちづけを
TTITLE1=ある日　ある朝　恋人は
TTITLE2=あなたの世代へくちづけを（オリジナル・カラオケ）
EXTD=YEAR: 1995
EXTT0=
EXTT1=
EXTT2=
PLAYORDER=
